<svg width="40" height="40" viewBox="0 0 40 40" fill="none" xmlns="http://www.w3.org/2000/svg">
<path d="M16.7071 14.7071C17.0976 14.3166 17.0976 13.6834 16.7071 13.2929C16.3166 12.9024 15.6834 12.9024 15.2929 13.2929L9.29289 19.2929C8.90237 19.6834 8.90237 20.3166 9.29289 20.7071L15.2929 26.7071C15.6834 27.0976 16.3166 27.0976 16.7071 26.7071C17.0976 26.3166 17.0976 25.6834 16.7071 25.2929L11.4142 20L16.7071 14.7071Z" fill="white"/>
<path d="M24.7071 13.2929C24.3166 12.9024 23.6834 12.9024 23.2929 13.2929C22.9024 13.6834 22.9024 14.3166 23.2929 14.7071L28.5858 20L23.2929 25.2929C22.9024 25.6834 22.9024 26.3166 23.2929 26.7071C23.6834 27.0976 24.3166 27.0976 24.7071 26.7071L30.7071 20.7071C31.0976 20.3166 31.0976 19.6834 30.7071 19.2929L24.7071 13.2929Z" fill="white"/>
</svg>
