<svg width="40" height="40" viewBox="0 0 40 40" fill="none" xmlns="http://www.w3.org/2000/svg">
<path fill-rule="evenodd" clip-rule="evenodd" d="M21 26H28C29.6569 26 31 24.6569 31 23V13C31 11.3431 29.6569 10 28 10H12C10.3431 10 9 11.3431 9 13V23C9 24.6569 10.3431 26 12 26H19V28H16C15.4477 28 15 28.4477 15 29C15 29.5523 15.4477 30 16 30H24C24.5523 30 25 29.5523 25 29C25 28.4477 24.5523 28 24 28H21V26ZM12 12C11.4477 12 11 12.4477 11 13V23C11 23.5523 11.4477 24 12 24H28C28.5523 24 29 23.5523 29 23V13C29 12.4477 28.5523 12 28 12H12Z" fill="white"/>
</svg>
