<svg width="40" height="40" viewBox="0 0 40 40" fill="none" xmlns="http://www.w3.org/2000/svg">
<path fill-rule="evenodd" clip-rule="evenodd" d="M20 10C17.2386 10 15 12.2386 15 15C15 17.7614 17.2386 20 20 20C22.7614 20 25 17.7614 25 15C25 12.2386 22.7614 10 20 10ZM17 15C17 13.3431 18.3431 12 20 12C21.6569 12 23 13.3431 23 15C23 16.6569 21.6569 18 20 18C18.3431 18 17 16.6569 17 15Z" fill="white"/>
<path d="M16 22C14.6739 22 13.4021 22.5268 12.4645 23.4645C11.5268 24.4021 11 25.6739 11 27V29C11 29.5523 11.4477 30 12 30C12.5523 30 13 29.5523 13 29V27C13 26.2043 13.3161 25.4413 13.8787 24.8787C14.4413 24.3161 15.2044 24 16 24H24C24.7956 24 25.5587 24.3161 26.1213 24.8787C26.6839 25.4413 27 26.2044 27 27V29C27 29.5523 27.4477 30 28 30C28.5523 30 29 29.5523 29 29V27C29 25.6739 28.4732 24.4021 27.5355 23.4645C26.5979 22.5268 25.3261 22 24 22H16Z" fill="white"/>
</svg>
