<svg width="14" height="14" viewBox="0 0 14 14" fill="none" xmlns="http://www.w3.org/2000/svg">
<path fill-rule="evenodd" clip-rule="evenodd" d="M5.83325 1.16669C5.36912 1.16669 4.924 1.35106 4.59582 1.67925C4.26763 2.00744 4.08325 2.45256 4.08325 2.91669V3.50002H2.33325C1.36675 3.50002 0.583252 4.28352 0.583252 5.25002V11.0834C0.583252 12.0499 1.36675 12.8334 2.33325 12.8334H11.6666C12.6331 12.8334 13.4166 12.0499 13.4166 11.0834V5.25002C13.4166 4.28352 12.6331 3.50002 11.6666 3.50002H9.91659V2.91669C9.91659 2.45256 9.73221 2.00744 9.40402 1.67925C9.07583 1.35106 8.63071 1.16669 8.16659 1.16669H5.83325ZM8.74992 3.50002V2.91669C8.74992 2.76198 8.68846 2.6136 8.57906 2.50421C8.46967 2.39481 8.3213 2.33335 8.16659 2.33335H5.83325C5.67854 2.33335 5.53017 2.39481 5.42077 2.50421C5.31138 2.6136 5.24992 2.76198 5.24992 2.91669V3.50002H8.74992ZM5.24992 4.66669H8.74992V11.6667H5.24992V4.66669ZM4.08325 4.66669H2.33325C2.01109 4.66669 1.74992 4.92785 1.74992 5.25002V11.0834C1.74992 11.4055 2.01109 11.6667 2.33325 11.6667H4.08325V4.66669ZM9.91659 11.6667V4.66669H11.6666C11.9888 4.66669 12.2499 4.92785 12.2499 5.25002V11.0834C12.2499 11.4055 11.9888 11.6667 11.6666 11.6667H9.91659Z" fill="#12F7D6"/>
</svg>
