<svg width="14" height="14" viewBox="0 0 14 14" fill="none" xmlns="http://www.w3.org/2000/svg">
<path fill-rule="evenodd" clip-rule="evenodd" d="M0.583331 3.48988C0.583236 3.49564 0.583227 3.50139 0.583302 3.50715V10.5C0.583302 11.4638 1.36947 12.25 2.3333 12.25H11.6666C12.6305 12.25 13.4166 11.4638 13.4166 10.5V3.50721C13.4167 3.50141 13.4167 3.4956 13.4166 3.4898C13.4111 2.53063 12.6271 1.75 11.6666 1.75H2.3333C1.37284 1.75 0.588809 2.53067 0.583331 3.48988ZM1.81214 3.2398C1.90861 3.04904 2.10699 2.91667 2.3333 2.91667H11.6666C11.8929 2.91667 12.0913 3.04904 12.1878 3.2398L6.99997 6.87128L1.81214 3.2398ZM12.25 4.62038V10.5C12.25 10.8195 11.9861 11.0833 11.6666 11.0833H2.3333C2.0138 11.0833 1.74997 10.8195 1.74997 10.5V4.62038L6.66545 8.06122C6.8663 8.20182 7.13363 8.20182 7.33449 8.06122L12.25 4.62038Z" fill="#12F7D6"/>
</svg>
